<svg width="32" height="32" viewBox="0 0 32 32" fill="none" xmlns="http://www.w3.org/2000/svg">
<path d="M32 16C32 12.8355 31.0616 9.74207 29.3035 7.11088C27.5454 4.4797 25.0466 2.42894 22.1229 1.21793C19.1993 0.0069327 15.9823 -0.309921 12.8786 0.307443C9.77486 0.924806 6.92394 2.44866 4.6863 4.6863C2.44866 6.92394 0.924806 9.77486 0.307443 12.8786C-0.309921 15.9823 0.0069327 19.1993 1.21793 22.1229C2.42894 25.0466 4.4797 27.5454 7.11088 29.3035C9.74207 31.0616 12.8355 32 16 32C20.243 31.9985 24.3118 30.3123 27.312 27.312C30.3123 24.3118 31.9985 20.243 32 16ZM11.904 22.9547C11.5756 22.618 11.3918 22.1663 11.3918 21.696C11.3918 21.2257 11.5756 20.774 11.904 20.4373L15.5733 16.7467C15.6745 16.6504 15.755 16.5345 15.81 16.4062C15.865 16.2778 15.8934 16.1396 15.8934 16C15.8934 15.8604 15.865 15.7222 15.81 15.5938C15.755 15.4655 15.6745 15.3496 15.5733 15.2533L11.904 11.5627C11.6537 11.315 11.4829 10.9983 11.4134 10.6531C11.344 10.3078 11.3791 9.94976 11.5142 9.62456C11.6493 9.29937 11.8783 9.02185 12.172 8.82748C12.4656 8.6331 12.8105 8.53069 13.1627 8.53334C13.632 8.53815 14.0819 8.72117 14.4213 9.04534L20.096 14.7413C20.2632 14.9055 20.3961 15.1014 20.4868 15.3175C20.5775 15.5336 20.6242 15.7656 20.6242 16C20.6242 16.2344 20.5775 16.4664 20.4868 16.6825C20.3961 16.8986 20.2632 17.0945 20.096 17.2587L14.4213 22.9547C14.0819 23.2788 13.632 23.4619 13.1627 23.4667C12.9295 23.4684 12.6983 23.424 12.4823 23.3361C12.2663 23.2483 12.0698 23.1186 11.904 22.9547Z" fill="#004A33"/>
</svg>
