<svg width="34" height="33" viewBox="0 0 34 33" fill="none" xmlns="http://www.w3.org/2000/svg">
<path d="M28.5392 11.8922L28.9194 11.0175C29.5878 9.47007 30.812 8.2294 32.3502 7.54026L33.5232 7.01636C33.6655 6.9509 33.7861 6.84601 33.8706 6.71412C33.9551 6.58223 34 6.42888 34 6.27224C34 6.1156 33.9551 5.96225 33.8706 5.83036C33.7861 5.69847 33.6655 5.59358 33.5232 5.52812L32.4151 5.03513C30.8382 4.32636 29.5931 3.0398 28.9364 1.44046L28.5454 0.496208C28.488 0.349939 28.3878 0.224364 28.258 0.135853C28.1281 0.0473413 27.9746 0 27.8175 0C27.6604 0 27.5069 0.0473413 27.377 0.135853C27.2472 0.224364 27.147 0.349939 27.0896 0.496208L26.6986 1.43892C26.0426 3.03855 24.7981 4.32567 23.2214 5.03513L22.1118 5.52966C21.9699 5.59531 21.8498 5.70019 21.7656 5.83191C21.6814 5.96363 21.6367 6.11669 21.6367 6.27301C21.6367 6.42934 21.6814 6.5824 21.7656 6.71412C21.8498 6.84584 21.9699 6.95072 22.1118 7.01636L23.2863 7.53872C24.8243 8.22854 26.0479 9.46977 26.7156 11.0175L27.0958 11.8922C27.374 12.532 28.2595 12.532 28.5392 11.8922ZM6.18152 7.72881C5.94161 7.72881 5.70498 7.78467 5.49039 7.89196C5.2758 7.99926 5.08913 8.15504 4.94518 8.34698L0.308902 14.5287C0.0941258 14.8152 -0.0145091 15.1673 0.00155753 15.525C0.0176242 15.8827 0.157395 16.2238 0.396991 16.4898L14.3058 31.9441C14.4507 32.105 14.6278 32.2336 14.8257 32.3216C15.0235 32.4097 15.2376 32.4552 15.4541 32.4552C15.6706 32.4552 15.8847 32.4097 16.0825 32.3216C16.2803 32.2336 16.4574 32.105 16.6023 31.9441L30.5112 16.4898L28.2147 14.4221L15.4541 28.5998L3.54348 15.3663L6.95424 10.8197H20.0904V7.72881H6.18152Z" fill="#C7B07D"/>
</svg>
