<svg width="110" height="17" viewBox="0 0 110 17" fill="none" xmlns="http://www.w3.org/2000/svg">
<path d="M16.2011 5.5458L12.0417 5.2377C11.7336 5.2377 11.5796 5.08365 11.5796 4.77555L10.0391 0.9243C9.57692 -0.3081 7.88237 -0.3081 7.42022 0.9243L5.87972 4.77555C5.72567 4.92959 5.57161 5.08365 5.41757 5.2377L1.25821 5.5458C0.0258164 5.69984 -0.436337 7.24035 0.487964 8.0106L3.72302 10.6295C3.87707 10.7835 4.03112 11.0916 3.87707 11.2457L2.95277 15.251C2.64466 16.4834 4.03112 17.4077 5.10947 16.7915L8.65262 14.6348C8.80667 14.4807 9.11476 14.4807 9.26882 14.6348L12.812 16.7915C13.8903 17.4077 15.2768 16.4834 14.9687 15.251L14.0444 11.2457C14.0444 11.0916 14.0444 10.7835 14.1984 10.6295L17.4335 8.0106C17.8956 7.24036 17.4335 5.69985 16.2011 5.5458Z" fill="white"/>
<path d="M39.0005 5.5458L34.8412 5.2377C34.5331 5.2377 34.379 5.08365 34.379 4.77555L32.8385 0.9243C32.3764 -0.3081 30.6818 -0.3081 30.2197 0.9243L28.6792 4.77555C28.5251 4.92959 28.3711 5.08365 28.217 5.2377L24.0577 5.5458C22.8253 5.69984 22.3631 7.24035 23.2874 8.0106L26.5224 10.6295C26.6765 10.7835 26.8306 11.0916 26.6765 11.2457L25.7522 15.251C25.4441 16.4834 26.8306 17.4077 27.9089 16.7915L31.4521 14.6348C31.6061 14.4807 31.9142 14.4807 32.0683 14.6348L35.6114 16.7915C36.6898 17.4077 38.0762 16.4834 37.7681 15.251L36.8438 11.2457C36.8438 11.0916 36.8438 10.7835 36.9979 10.6295L40.2329 8.0106C40.8491 7.24036 40.387 5.69985 39.0005 5.5458Z" fill="white"/>
<path d="M61.9539 5.5458L57.7946 5.2377C57.4865 5.2377 57.3324 5.08365 57.3324 4.77555L55.7919 0.9243C55.3298 -0.3081 53.6352 -0.3081 53.1731 0.9243L51.6326 4.77555C51.4785 4.92959 51.3245 5.08365 51.1704 5.2377L47.0111 5.5458C45.7787 5.69984 45.3165 7.24035 46.2408 8.0106L49.4759 10.6295C49.6299 10.7835 49.784 11.0916 49.6299 11.2457L48.7056 15.251C48.3975 16.4834 49.784 17.4077 50.8623 16.7915L54.4055 14.6348C54.5595 14.4807 54.8676 14.4807 55.0217 14.6348L58.5648 16.7915C59.6432 17.4077 61.0296 16.4834 60.7215 15.251L59.7972 11.2457C59.7972 11.0916 59.7972 10.7835 59.9513 10.6295L63.1863 8.0106C63.8025 7.24036 63.1863 5.69985 61.9539 5.5458Z" fill="white"/>
<path d="M84.9074 5.5458L80.7481 5.2377C80.44 5.2377 80.2859 5.08365 80.2859 4.77555L78.7454 0.9243C78.2833 -0.3081 76.5887 -0.3081 76.1266 0.9243L74.5861 4.77555C74.432 4.92959 74.278 5.08365 74.1239 5.2377L69.9646 5.5458C68.7322 5.69984 68.27 7.24035 69.1943 8.0106L72.4294 10.6295C72.5834 10.7835 72.7375 11.0916 72.5834 11.2457L71.6591 15.251C71.351 16.4834 72.7375 17.4077 73.8158 16.7915L77.359 14.6348C77.513 14.4807 77.8211 14.4807 77.9752 14.6348L81.5183 16.7915C82.5967 17.4077 83.9831 16.4834 83.675 15.251L82.7507 11.2457C82.7507 11.0916 82.7507 10.7835 82.9048 10.6295L86.1398 8.0106C86.602 7.24036 86.1398 5.69985 84.9074 5.5458Z" fill="white"/>
<path d="M107.706 5.5458L103.547 5.2377C103.239 5.2377 103.085 5.08365 103.085 4.77555L101.544 0.9243C101.082 -0.3081 99.3878 -0.3081 98.9257 0.9243L97.3852 4.77555C97.2311 4.92959 97.0771 5.08365 96.923 5.2377L92.7636 5.5458C91.5312 5.69984 91.0691 7.24035 91.9934 8.0106L95.2284 10.6295C95.3825 10.7835 95.5365 11.0916 95.3825 11.2457L94.4582 15.251C94.1501 16.4834 95.5365 17.4077 96.6149 16.7915L100.158 14.6348C100.312 14.4807 100.62 14.4807 100.774 14.6348L104.317 16.7915C105.396 17.4077 106.782 16.4834 106.474 15.251L105.55 11.2457C105.55 11.0916 105.55 10.7835 105.704 10.6295L108.939 8.0106C109.401 7.24036 108.939 5.69985 107.706 5.5458Z" fill="white"/>
</svg>
