<svg width="173" height="68" viewBox="0 0 173 68" fill="none" xmlns="http://www.w3.org/2000/svg">
<path d="M18.9185 50.647H22.0769V64.5837H28.9607V67.5243H18.9185V50.647Z" fill="white"/>
<path d="M36.2577 50.647H33.0993V67.5205H36.2577V50.647Z" fill="white"/>
<path d="M53.3304 61.9886V50.647H56.3911V67.5243H54.7988L45.1734 56.4267H45.0044V67.5243H41.9174V50.647H43.5585L53.1351 61.9886H53.3304Z" fill="white"/>
<path d="M65.2317 50.647H62.0733V67.5205H65.2317V50.647Z" fill="white"/>
<path d="M72.5324 50.647L79.6604 60.8132H79.8294L86.9573 50.647H88.5985V67.5243H85.5866V57.1403H85.3913L79.9045 64.9255H79.5627L74.0984 57.1403H73.9294V67.5243H70.8912V50.647H72.5324Z" fill="white"/>
<path d="M103.883 62.698L100.92 55.8405H100.748L97.7581 62.698H103.88H103.883ZM104.886 65.0002H96.7779L95.6776 67.5239H92.4215L100.064 50.6729H101.581L109.246 67.5239H105.964L104.886 65.0002Z" fill="white"/>
<path d="M111.943 66.6153V63.701C113.505 64.2568 115.582 65.1844 117.674 65.098C119.51 65.098 121.129 64.4859 121.129 62.9198C121.129 60.9369 119.146 60.8881 116.648 60.0281C114.222 59.2206 112.142 58.0677 112.142 55.2773C111.958 49.8919 119.634 49.3812 123.581 51.2627V54.177C121.583 53.4184 115.743 51.4805 115.522 55.1309C115.886 58.984 124.588 56.6669 124.486 62.6982C124.73 68.7597 116.07 68.7371 111.947 66.6153" fill="white"/>
<path d="M132.196 53.5876H127.273V50.647H140.278V53.5876H135.355V67.5243H132.196V53.5876Z" fill="white"/>
<path d="M144.368 50.647H154.974V53.073H147.53V57.8989H154.166V60.201H147.53V65.0982H154.974V67.5243H144.368V50.647Z" fill="white"/>
<path d="M169.203 55.9383C169.305 52.6071 165.11 53.3582 162.909 53.2944V58.6084C165.155 58.5784 169.241 59.2093 169.203 55.9383ZM173 67.524H169.425L165.508 61.0345H162.913V67.524H159.803V50.6505H166.342C173.034 50.1247 174.45 58.9539 168.569 60.52L173 67.524Z" fill="white"/>
<path d="M14.119 63.9228C-0.118184 70.1908 -0.30596 48.1947 14.119 54.0984V51.2104C8.43313 48.4576 -0.38858 51.7211 0.0132608 59.0707C-0.384824 66.424 8.42938 69.7363 14.119 66.9347V63.9191V63.9228Z" fill="white"/>
<path d="M103.373 0V3.80809C103.373 5.73843 102.186 7.47348 100.387 8.17576L95.6475 10.0235L86.4991 6.49705L103.373 0Z" fill="#00634A"/>
<path d="M86.4992 20.1633L77.3507 23.7311L72.63 21.9134C70.8199 21.2186 69.6256 19.4798 69.6256 17.5382V16.2163C69.6256 14.2747 70.8199 12.5359 72.63 11.8411L77.3507 10.0234L86.4992 13.5912L78.0605 16.8773L86.4992 20.1633Z" fill="#00634A"/>
<path d="M103.373 29.9463V33.7544L86.4991 27.2574L95.6475 23.731L100.387 25.5787C102.186 26.2809 103.373 28.016 103.373 29.9463Z" fill="#00634A"/>
<path d="M95.6476 10.0235L86.4992 13.5913L77.3507 10.0235L86.4992 6.49707L95.6476 10.0235Z" fill="#B09663"/>
<path d="M69.6256 3.80775V0.00341797L86.4992 6.50046L77.3507 10.0269L72.6112 8.17918C70.8123 7.4769 69.6256 5.74185 69.6256 3.81151" fill="#C7B07D"/>
<path d="M95.6476 23.7308L86.4992 27.2535L77.3507 23.7308L86.4992 20.1631L95.6476 23.7308Z" fill="#004A33"/>
<path d="M77.3507 23.7305L86.4992 27.2569L69.6256 33.754V29.9459C69.6256 28.0155 70.8123 26.2805 72.6112 25.5782L77.3507 23.7305Z" fill="#C7B07D"/>
<path d="M103.373 16.2163V17.5382C103.373 19.4798 102.178 21.2186 100.368 21.9134L95.6475 23.7311L86.4991 20.1633L94.9377 16.8773L86.4991 13.5912L95.6475 10.0234L100.368 11.8411C102.178 12.5359 103.373 14.2747 103.373 16.2125" fill="#C7B07D"/>
</svg>
