<svg width="183" height="28" viewBox="0 0 183 28" fill="none" xmlns="http://www.w3.org/2000/svg">
<path d="M15.5828 6.9507H18.1843V18.4301H23.8543V20.8491H15.5828V6.9507Z" fill="white"/>
<path d="M29.8647 6.9507H27.2632V20.8491H29.8647V6.9507Z" fill="white"/>
<path d="M43.9269 16.2926V6.9507H46.448V20.8491H45.1364L37.2082 11.7113H37.0659V20.8491H34.5262V6.9507H35.878L43.766 16.2926H43.9269Z" fill="white"/>
<path d="M53.7297 6.9507H51.1282V20.8491H53.7297V6.9507Z" fill="white"/>
<path d="M59.7431 6.9507L65.6112 15.3244H65.7535L71.6246 6.9507H72.9764V20.8491H70.4956V12.296H70.3316L65.8154 18.7116H65.5308L61.0331 12.296H60.8908V20.8491H58.3914V6.9507H59.7431Z" fill="white"/>
<path d="M85.5631 16.8772L83.1225 11.2288H82.9802L80.5179 16.8772H85.5601H85.5631ZM86.3922 18.7734H79.7137L78.8042 20.8521H76.1223L82.4172 6.97236H83.667L89.9804 20.8521H87.2768L86.3891 18.7734H86.3922Z" fill="white"/>
<path d="M92.2015 20.1036V17.7031C93.4883 18.1609 95.1989 18.925 96.9219 18.8539C98.4345 18.8539 99.7678 18.3497 99.7678 17.0597C99.7678 15.4265 98.1345 15.3862 96.0774 14.6779C94.0791 14.0128 92.3654 13.0631 92.3654 10.7648C92.2139 6.32895 98.5366 5.90826 101.785 7.45802V9.85845C100.139 9.23359 95.3288 7.63743 95.1463 10.6441C95.4464 13.8179 102.614 11.9093 102.53 16.8772C102.731 21.8699 95.598 21.8513 92.2015 20.1036Z" fill="white"/>
<path d="M108.887 9.37279H104.832V6.9507H115.544V9.37279H111.488V20.8491H108.887V9.37279Z" fill="white"/>
<path d="M118.912 6.9507H127.648V8.949H121.514V12.9239H126.983V14.8201H121.514V18.8539H127.648V20.8491H118.912V6.9507Z" fill="white"/>
<path d="M139.369 11.3092C139.452 8.56543 135.997 9.1841 134.184 9.13152V13.5086C136.034 13.4838 139.403 14.0035 139.369 11.3092ZM142.496 20.8491H139.551L136.325 15.5038H134.187V20.8491H131.626V6.9507H137.011C142.524 6.51764 143.69 13.7901 138.846 15.08L142.496 20.8491Z" fill="white"/>
<path d="M11.6295 17.8857C-0.0973262 23.0484 -0.251993 4.93077 11.6295 9.79349V7.41472C6.94619 5.1473 -0.320064 7.83543 0.0109226 13.8891C-0.31697 19.9458 6.9431 22.6741 11.6295 20.3665V17.8826V17.8857Z" fill="white"/>
<path d="M183 0V3.13664C183 4.72661 182.022 6.15574 180.541 6.73419L176.637 8.2561L169.102 5.35146L183 0Z" fill="#00634A"/>
<path d="M169.102 16.605L161.566 19.5437L157.678 18.0465C156.187 17.4742 155.203 16.042 155.203 14.4428V13.3539C155.203 11.7546 156.187 10.3224 157.678 9.75018L161.566 8.253L169.102 11.1917L162.151 13.8983L169.102 16.605Z" fill="#00634A"/>
<path d="M183 24.6631V27.7998L169.102 22.4483L176.637 19.5437L180.541 21.0656C182.022 21.644 183 23.0732 183 24.6631Z" fill="#00634A"/>
<path d="M176.637 8.2561L169.102 11.1917L161.563 8.2561L169.102 5.35146L176.637 8.2561Z" fill="#B09663"/>
<path d="M155.2 3.13355V0L169.099 5.35146L161.563 8.2561L157.659 6.73419C156.178 6.15574 155.2 4.72661 155.2 3.13664" fill="#C7B07D"/>
<path d="M176.637 19.5437L169.102 22.4483L161.563 19.5437L169.102 16.605L176.637 19.5437Z" fill="#004A33"/>
<path d="M161.563 19.5437L169.099 22.4483L155.2 27.7998V24.6631C155.2 23.0732 156.178 21.644 157.659 21.0656L161.563 19.5437Z" fill="#C7B07D"/>
<path d="M183 13.3539V14.4428C183 16.042 182.016 17.4742 180.525 18.0434L176.637 19.5406L169.102 16.6019L176.052 13.8953L169.102 11.1886L176.637 8.24992L180.525 9.7471C182.016 10.3194 183 11.7516 183 13.3477" fill="#C7B07D"/>
</svg>
