<svg width="14" height="23" viewBox="0 0 14 23" fill="none" xmlns="http://www.w3.org/2000/svg">
<path d="M3.82835 21.6508V13.3739H0.62675C0.460526 13.3739 0.301109 13.3086 0.183571 13.1923C0.0660326 13.076 0 12.9182 0 12.7538V9.48009C0 9.31562 0.0660326 9.15788 0.183571 9.04158C0.301109 8.92529 0.460526 8.85995 0.62675 8.85995H3.8157V5.69097C3.73941 4.93947 3.83034 4.18055 4.0821 3.46752C4.33385 2.75449 4.74032 2.10465 5.27297 1.56363C5.80561 1.02261 6.45151 0.603544 7.1653 0.335856C7.87908 0.0681678 8.64345 -0.0416466 9.4047 0.0141259H12.0727C12.2405 0.0138005 12.4017 0.0787588 12.5215 0.194987C12.6414 0.311215 12.7102 0.469396 12.7133 0.635405V3.40726C12.7096 3.57298 12.6406 3.7307 12.5208 3.84662C12.4011 3.96255 12.2402 4.02744 12.0727 4.0274H10.4052C8.6043 4.0274 8.25815 4.87171 8.25815 6.11312V8.85881H12.5396C12.6286 8.8559 12.7171 8.87219 12.7991 8.90657C12.8811 8.94095 12.9545 8.99259 13.0143 9.05789C13.074 9.12319 13.1187 9.20059 13.1452 9.2847C13.1716 9.36882 13.1792 9.45763 13.1675 9.54495L12.78 12.8311C12.7605 12.9816 12.686 13.1199 12.5705 13.2197C12.455 13.3195 12.3065 13.374 12.1532 13.3728H8.2846V21.6496C8.28677 21.7959 8.25925 21.9411 8.20366 22.0766C8.14806 22.2121 8.06553 22.3352 7.96097 22.4385C7.8564 22.5419 7.73191 22.6234 7.5949 22.6783C7.45789 22.7331 7.31114 22.7602 7.16335 22.7579H4.9358C4.78917 22.7584 4.64391 22.73 4.5085 22.6743C4.3731 22.6186 4.25026 22.5368 4.14717 22.4336C4.04407 22.3304 3.96278 22.208 3.90804 22.0734C3.8533 21.9388 3.82621 21.7959 3.82835 21.6508Z" fill="#004A33"/>
</svg>
