<svg width="39" height="32" viewBox="0 0 39 32" fill="none" xmlns="http://www.w3.org/2000/svg">
<path d="M3.64501 21.6829C2.11501 19.6957 1.35001 18.7003 1.35001 15.7501C1.35001 12.7981 2.11501 11.8063 3.64501 9.8173C6.69961 5.8501 11.8224 1.3501 19.35 1.3501C26.8776 1.3501 32.0004 5.8501 35.055 9.8173C36.585 11.8081 37.35 12.7999 37.35 15.7501C37.35 18.7021 36.585 19.6939 35.055 21.6829C32.0004 25.6501 26.8776 30.1501 19.35 30.1501C11.8224 30.1501 6.69961 25.6501 3.64501 21.6829Z" stroke="#004A33" stroke-width="2.7"/>
<path d="M24.75 15.7501C24.75 17.1823 24.1811 18.5558 23.1684 19.5685C22.1557 20.5812 20.7822 21.1501 19.35 21.1501C17.9178 21.1501 16.5443 20.5812 15.5316 19.5685C14.5189 18.5558 13.95 17.1823 13.95 15.7501C13.95 14.3179 14.5189 12.9444 15.5316 11.9317C16.5443 10.919 17.9178 10.3501 19.35 10.3501C20.7822 10.3501 22.1557 10.919 23.1684 11.9317C24.1811 12.9444 24.75 14.3179 24.75 15.7501Z" stroke="#004A33" stroke-width="2.7"/>
</svg>
