<svg width="37" height="30" viewBox="0 0 37 30" fill="none" xmlns="http://www.w3.org/2000/svg">
<path d="M3.44252 20.4782C1.99752 18.6014 1.27502 17.6613 1.27502 14.875C1.27502 12.087 1.99752 11.1503 3.44252 9.27182C6.32742 5.52503 11.1656 1.27502 18.275 1.27502C25.3844 1.27502 30.2226 5.52503 33.1075 9.27182C34.5525 11.152 35.275 12.0887 35.275 14.875C35.275 17.663 34.5525 18.5997 33.1075 20.4782C30.2226 24.225 25.3844 28.475 18.275 28.475C11.1656 28.475 6.32742 24.225 3.44252 20.4782Z" stroke="#C7B07D" stroke-width="2.55"/>
<path d="M23.375 14.875C23.375 16.2276 22.8377 17.5248 21.8812 18.4813C20.9248 19.4377 19.6276 19.975 18.275 19.975C16.9224 19.975 15.6252 19.4377 14.6687 18.4813C13.7123 17.5248 13.175 16.2276 13.175 14.875C13.175 13.5224 13.7123 12.2252 14.6687 11.2688C15.6252 10.3123 16.9224 9.77502 18.275 9.77502C19.6276 9.77502 20.9248 10.3123 21.8812 11.2688C22.8377 12.2252 23.375 13.5224 23.375 14.875Z" stroke="#C7B07D" stroke-width="2.55"/>
</svg>
