<svg width="88" height="93" viewBox="0 0 88 93" fill="none" xmlns="http://www.w3.org/2000/svg">
<g filter="url(#filter0_dddd_115_13)">
<rect x="22" y="2" width="63" height="63" rx="9" fill="#B09663"/>
</g>
<path fill-rule="evenodd" clip-rule="evenodd" d="M51.3754 16.1986H54.6246C57.4523 16.1986 59.6923 16.1986 61.4446 16.434C63.2477 16.6771 64.7077 17.1878 65.86 18.3386C67.0108 19.4909 67.5215 20.9509 67.7646 22.754C68 24.5078 68 26.7463 68 29.574V35.9001C68 38.7278 68 40.9678 67.7646 42.7201C67.5215 44.5232 67.0108 45.9832 65.86 47.1355C64.7077 48.2863 63.2477 48.7971 61.4446 49.0401C59.6908 49.2755 57.4523 49.2755 54.6246 49.2755H51.3754C48.5477 49.2755 46.3077 49.2755 44.5554 49.0401C42.7523 48.7971 41.2923 48.2863 40.14 47.1355C38.9892 45.9832 38.4785 44.5232 38.2354 42.7201C38 40.9663 38 38.7278 38 35.9001V29.574C38 26.7463 38 24.5063 38.2354 22.754C38.4785 20.9509 38.9892 19.4909 40.14 18.3386C41.2923 17.1878 42.7523 16.6771 44.5554 16.434C46.3092 16.1986 48.5477 16.1986 51.3754 16.1986ZM44.8615 18.7217C43.3138 18.9294 42.4215 19.3201 41.7692 19.9709C41.12 20.6217 40.7292 21.514 40.5215 23.0617C40.3092 24.6432 40.3062 26.7263 40.3062 29.6601V35.814C40.3062 38.7478 40.3092 40.8325 40.5215 42.414C40.7292 43.9601 41.12 44.8525 41.7708 45.5032C42.4215 46.154 43.3138 46.5448 44.8615 46.7525C46.4431 46.9648 48.5262 46.9678 51.46 46.9678H54.5369C57.4708 46.9678 59.5554 46.9648 61.1369 46.7525C62.6831 46.5448 63.5754 46.154 64.2262 45.5032C64.8769 44.8525 65.2677 43.9601 65.4754 42.4125C65.6877 40.8325 65.6908 38.7478 65.6908 35.814V29.6601C65.6908 26.7263 65.6877 24.6432 65.4754 23.0601C65.2677 21.514 64.8769 20.6217 64.2262 19.9709C63.5754 19.3201 62.6831 18.9294 61.1354 18.7217C59.5554 18.5094 57.4708 18.5063 54.5369 18.5063H51.46C48.5262 18.5063 46.4446 18.5094 44.8615 18.7217ZM53 22.3525C53.306 22.3525 53.5995 22.474 53.8159 22.6904C54.0323 22.9068 54.1538 23.2003 54.1538 23.5063V25.4294H56.0769C56.3829 25.4294 56.6764 25.5509 56.8928 25.7673C57.1092 25.9837 57.2308 26.2772 57.2308 26.5832C57.2308 26.8892 57.1092 27.1827 56.8928 27.3991C56.6764 27.6155 56.3829 27.7371 56.0769 27.7371H54.1538V29.6601C54.1538 29.9662 54.0323 30.2597 53.8159 30.476C53.5995 30.6924 53.306 30.814 53 30.814C52.694 30.814 52.4005 30.6924 52.1841 30.476C51.9677 30.2597 51.8462 29.9662 51.8462 29.6601V27.7371H49.9231C49.6171 27.7371 49.3236 27.6155 49.1072 27.3991C48.8908 27.1827 48.7692 26.8892 48.7692 26.5832C48.7692 26.2772 48.8908 25.9837 49.1072 25.7673C49.3236 25.5509 49.6171 25.4294 49.9231 25.4294H51.8462V23.5063C51.8462 23.2003 51.9677 22.9068 52.1841 22.6904C52.4005 22.474 52.694 22.3525 53 22.3525ZM45.6923 35.814C45.6923 35.508 45.8139 35.2145 46.0303 34.9981C46.2466 34.7817 46.5401 34.6601 46.8462 34.6601H59.1538C59.4599 34.6601 59.7534 34.7817 59.9697 34.9981C60.1861 35.2145 60.3077 35.508 60.3077 35.814C60.3077 36.12 60.1861 36.4135 59.9697 36.6299C59.7534 36.8463 59.4599 36.9678 59.1538 36.9678H46.8462C46.5401 36.9678 46.2466 36.8463 46.0303 36.6299C45.8139 36.4135 45.6923 36.12 45.6923 35.814ZM47.2308 41.9678C47.2308 41.6618 47.3523 41.3683 47.5687 41.1519C47.7851 40.9356 48.0786 40.814 48.3846 40.814H57.6154C57.9214 40.814 58.2149 40.9356 58.4313 41.1519C58.6477 41.3683 58.7692 41.6618 58.7692 41.9678C58.7692 42.2739 58.6477 42.5673 58.4313 42.7837C58.2149 43.0001 57.9214 43.1217 57.6154 43.1217H48.3846C48.0786 43.1217 47.7851 43.0001 47.5687 42.7837C47.3523 42.5673 47.2308 42.2739 47.2308 41.9678Z" fill="#004A33"/>
<defs>
<filter id="filter0_dddd_115_13" x="0" y="0" width="88" height="93" filterUnits="userSpaceOnUse" color-interpolation-filters="sRGB">
<feFlood flood-opacity="0" result="BackgroundImageFix"/>
<feColorMatrix in="SourceAlpha" type="matrix" values="0 0 0 0 0 0 0 0 0 0 0 0 0 0 0 0 0 0 127 0" result="hardAlpha"/>
<feOffset dx="-1" dy="1"/>
<feGaussianBlur stdDeviation="1.5"/>
<feColorMatrix type="matrix" values="0 0 0 0 0 0 0 0 0 0 0 0 0 0 0 0 0 0 0.15 0"/>
<feBlend mode="normal" in2="BackgroundImageFix" result="effect1_dropShadow_115_13"/>
<feColorMatrix in="SourceAlpha" type="matrix" values="0 0 0 0 0 0 0 0 0 0 0 0 0 0 0 0 0 0 127 0" result="hardAlpha"/>
<feOffset dx="-3" dy="5"/>
<feGaussianBlur stdDeviation="3"/>
<feColorMatrix type="matrix" values="0 0 0 0 0 0 0 0 0 0 0 0 0 0 0 0 0 0 0.13 0"/>
<feBlend mode="normal" in2="effect1_dropShadow_115_13" result="effect2_dropShadow_115_13"/>
<feColorMatrix in="SourceAlpha" type="matrix" values="0 0 0 0 0 0 0 0 0 0 0 0 0 0 0 0 0 0 127 0" result="hardAlpha"/>
<feOffset dx="-7" dy="11"/>
<feGaussianBlur stdDeviation="4"/>
<feColorMatrix type="matrix" values="0 0 0 0 0 0 0 0 0 0 0 0 0 0 0 0 0 0 0.08 0"/>
<feBlend mode="normal" in2="effect2_dropShadow_115_13" result="effect3_dropShadow_115_13"/>
<feColorMatrix in="SourceAlpha" type="matrix" values="0 0 0 0 0 0 0 0 0 0 0 0 0 0 0 0 0 0 127 0" result="hardAlpha"/>
<feOffset dx="-13" dy="19"/>
<feGaussianBlur stdDeviation="4.5"/>
<feColorMatrix type="matrix" values="0 0 0 0 0 0 0 0 0 0 0 0 0 0 0 0 0 0 0.02 0"/>
<feBlend mode="normal" in2="effect3_dropShadow_115_13" result="effect4_dropShadow_115_13"/>
<feBlend mode="normal" in="SourceGraphic" in2="effect4_dropShadow_115_13" result="shape"/>
</filter>
</defs>
</svg>
