<svg width="34" height="34" viewBox="0 0 34 34" fill="none" xmlns="http://www.w3.org/2000/svg">
<g clip-path="url(#clip0_75_348)">
<path d="M14.8617 0.0996361C11.8203 0.517998 9.09101 1.63362 6.67383 3.44651C5.83047 4.08401 4.45586 5.41878 3.76523 6.27542C1.74648 8.77893 0.524609 11.661 0.0996094 14.9215C-0.0332031 15.9176 -0.0332031 18.0824 0.0996094 19.0785C0.498047 22.1465 1.61367 24.8824 3.44648 27.3262C4.08398 28.1696 5.41875 29.5442 6.27539 30.2348C8.81211 32.2801 11.9398 33.5817 15.1539 33.927C15.9707 34.0199 18.0426 34.0199 18.8262 33.9336C21.8941 33.5949 24.8359 32.4262 27.3262 30.5535C28.1695 29.916 29.5441 28.5813 30.2348 27.7246C31.8285 25.7457 32.891 23.6141 33.502 21.1637C33.8539 19.7492 33.9469 19.0453 33.9801 17.4449C34.0199 15.8512 33.9535 14.9946 33.7012 13.7129C33.4422 12.4047 33.2297 11.7473 33.0039 11.5414C32.6121 11.1828 31.9879 11.2492 31.6957 11.6809C31.5098 11.9598 31.5031 12.2387 31.6758 12.8098C31.7422 13.0489 31.875 13.6199 31.968 14.0782C32.6918 17.7039 32.0477 21.5024 30.175 24.6899C27.8043 28.7141 23.9395 31.3371 19.2246 32.1141C18.202 32.2867 15.8113 32.2867 14.7754 32.1207C12.0129 31.6692 9.53594 30.5801 7.4375 28.9C2.21133 24.7032 0.332031 17.5578 2.82891 11.3356C4.34297 7.5637 7.33125 4.51565 11.0434 2.96175C14.1711 1.6469 17.5312 1.38792 20.6855 2.20472C21.1238 2.31761 21.6152 2.42385 21.7812 2.43714C22.6113 2.50354 23.0297 1.48089 22.4055 0.916435C22.1398 0.684013 20.1742 0.212528 18.8461 0.0730743C17.9695 -0.026535 15.652 -0.00661469 14.8617 0.0996361Z" fill="#C7B07D"/>
<path d="M27.6582 1.78633C27.552 1.85273 26.2637 3.10781 24.8028 4.57539L22.1465 7.23828L22.1266 8.95156L22.1067 10.6582L19.1914 13.5801C17.093 15.6785 16.2496 16.5617 16.2098 16.7145C16.077 17.1793 16.3625 17.6906 16.8075 17.7902C17.3321 17.9031 17.2922 17.9363 20.4133 14.8152L23.3418 11.8934L25.0485 11.8734L26.7618 11.8535L29.4579 9.16406C30.9387 7.6832 32.1938 6.39492 32.2469 6.29531C32.4528 5.91015 32.2735 5.36562 31.8684 5.1664C31.6758 5.06679 31.45 5.04687 30.3012 5.04687H28.9532V3.69882C28.9532 2.55664 28.9332 2.32422 28.8336 2.125C28.6278 1.70664 28.05 1.54062 27.6582 1.78633ZM27.3129 6.39492C27.5321 6.73359 27.7114 6.79336 28.5348 6.82656L29.2985 6.85976L27.6516 8.50664L25.9981 10.1602H24.9223H23.8399V9.08437V8.00195L25.4868 6.35508L27.127 4.71484L27.1602 5.46523C27.1868 6.02304 27.2266 6.26211 27.3129 6.39492Z" fill="#C7B07D"/>
<path d="M15.5723 5.14646C12.9094 5.48513 10.5055 6.6738 8.59961 8.59958C6.89297 10.3195 5.79063 12.4445 5.33242 14.8949C5.17305 15.7582 5.17305 18.1156 5.33242 18.9656C6.28867 24.0191 10.0141 27.7445 15.0145 28.6609C15.8113 28.807 17.4914 28.8535 18.3281 28.7605C22.7043 28.2558 26.277 25.5996 28.0168 21.5554C28.6277 20.1277 28.9066 18.7398 28.9133 17.0996C28.9199 15.8312 28.8867 15.6851 28.4883 15.4195C28.2957 15.2933 28.1961 15.2668 27.9305 15.2933C27.6582 15.3199 27.5652 15.3664 27.3859 15.5523L27.1801 15.7847L27.1402 17.1062C27.1137 18.2019 27.0805 18.5472 26.941 19.125C26.2039 22.2195 24.2715 24.6699 21.4824 26.0312C18.1953 27.6449 14.4699 27.3726 11.3555 25.2941C10.5121 24.7297 9.25703 23.4812 8.70586 22.6445C6.63398 19.5234 6.36172 15.798 7.96875 12.5175C9.17734 10.0472 11.2824 8.20778 13.8922 7.33786C15.0078 6.97263 15.4527 6.89958 16.8871 6.85974C18.1555 6.82653 18.2152 6.81989 18.3945 6.66052C18.8926 6.24216 18.7664 5.50505 18.1355 5.17966C17.8965 5.05349 16.4223 5.03357 15.5723 5.14646Z" fill="#C7B07D"/>
<path d="M15.7383 10.2598C13.4406 10.718 11.475 12.3848 10.6914 14.543C10.0207 16.3692 10.1137 18.2285 10.957 19.9551C12.325 22.7375 15.3996 24.2317 18.4676 23.6008C20.493 23.1891 22.2262 21.8344 23.1426 19.9551C23.6074 19.0121 23.7734 18.368 23.8199 17.3918L23.8598 16.6215L23.6273 16.3692C23.0629 15.7516 22.1199 16.1434 22.1133 17C22.1 18.2285 21.489 19.6364 20.5926 20.5196C18.9125 22.1598 16.4754 22.4453 14.4234 21.2434C13.9387 20.9512 13.0488 20.0614 12.7566 19.5766C10.9371 16.4754 12.6637 12.6571 16.1898 11.9797C16.4621 11.9266 16.8207 11.8868 16.9867 11.8868C17.591 11.8868 17.9762 11.4684 17.9098 10.8973C17.8832 10.6582 17.8234 10.552 17.6375 10.3793C17.4051 10.1602 17.3918 10.1602 16.7875 10.1668C16.4488 10.1668 15.9773 10.2133 15.7383 10.2598Z" fill="#C7B07D"/>
</g>
<defs>
<clipPath id="clip0_75_348">
<rect width="34" height="34" fill="white"/>
</clipPath>
</defs>
</svg>
