<svg width="88" height="93" viewBox="0 0 88 93" fill="none" xmlns="http://www.w3.org/2000/svg">
<g filter="url(#filter0_dddd_115_14)">
<rect x="22" y="2" width="63" height="63" rx="9" fill="#B09663"/>
</g>
<path d="M53.4472 18.1986C53.2885 18.1983 53.1318 18.2336 52.9886 18.3019C52.8453 18.3703 52.7193 18.4698 52.6196 18.5933L52.4307 18.7334C48.7703 17.6002 44.5942 18.432 41.687 21.2331C40.4693 22.388 39.5634 23.8322 39.0536 25.4313C38.5438 27.0303 38.4467 28.7323 38.7714 30.379L38.6653 30.4766L37.0122 32.0681C36.6924 32.3714 36.4378 32.7367 36.2638 33.1417C36.0897 33.5466 36 33.9827 36 34.4235C36 34.8643 36.0897 35.3004 36.2638 35.7054C36.4378 36.1103 36.6924 36.4756 37.0122 36.7789C37.8568 37.5938 39.0281 37.8994 40.1167 37.6956C40.2504 38.3089 40.5623 38.8925 41.0568 39.3678C41.7082 39.9959 42.5549 40.3206 43.4079 40.3439C43.4313 41.1651 43.7687 41.98 44.4201 42.6081C45.0716 43.2362 45.9204 43.563 46.7735 43.5842C46.7947 44.4054 47.1342 45.2224 47.7857 45.8505C48.4093 46.4424 49.2263 46.7883 50.0854 46.8242C50.9445 46.8601 51.7875 46.5836 52.4583 46.0458L53.3856 46.937C54.7437 48.2463 56.9464 48.2463 58.3045 46.937C58.9538 46.3131 59.2912 45.5025 59.3209 44.6834C60.1697 44.658 61.0079 44.3333 61.6551 43.7094C62.3023 43.0856 62.6419 42.2728 62.6673 41.4537C63.5295 41.4225 64.3503 41.0759 64.9739 40.4797C65.4896 39.9853 65.8079 39.372 65.931 38.7312C66.4772 38.8268 67.0382 38.7929 67.5689 38.6322C68.0996 38.4715 68.5852 38.1885 68.9867 37.806C69.3068 37.5026 69.5617 37.1372 69.7359 36.7321C69.9101 36.3269 70 35.8905 70 35.4495C70 35.0085 69.9101 34.5721 69.7359 34.1669C69.5617 33.7618 69.3068 33.3964 68.9867 33.093L67.4588 31.6225L67.7708 30.4553C68.3995 28.0692 68.0801 25.5322 66.8795 23.3763C65.1055 20.1806 61.6636 18.2071 57.9416 18.2071H55.3315L54.9941 18.1986H53.4472ZM58.6525 26.084L63.7559 31.0007L63.7623 31.0049L67.4567 34.5657C67.5767 34.6795 67.6723 34.8165 67.7376 34.9685C67.8029 35.1204 67.8366 35.2841 67.8366 35.4495C67.8366 35.6149 67.8029 35.7786 67.7376 35.9305C67.6723 36.0825 67.5767 36.2195 67.4567 36.3333C67.2086 36.5676 66.8802 36.6981 66.5389 36.6981C66.1977 36.6981 65.8693 36.5676 65.6212 36.3333L62.818 33.6341C62.6125 33.437 62.3388 33.3269 62.0541 33.3269C61.7693 33.3269 61.4956 33.437 61.2901 33.6341L61.2604 33.6596C61.1609 33.7547 61.0817 33.869 61.0276 33.9955C60.9735 34.1221 60.9456 34.2583 60.9456 34.3959C60.9456 34.5336 60.9735 34.6698 61.0276 34.7963C61.0817 34.9229 61.1609 35.0372 61.2604 35.1323L63.4461 37.2373C63.9554 37.7254 63.9554 38.519 63.4461 39.0092C63.2207 39.2227 62.928 39.3512 62.6183 39.3725C62.3085 39.3938 62.001 39.3066 61.7485 39.1259C61.5378 38.9736 61.2804 38.9 61.021 38.9179C60.7617 38.9357 60.5168 39.0438 60.3289 39.2235C60.1452 39.3991 60.0344 39.6373 60.0182 39.8909C60.0021 40.1444 60.0819 40.3948 60.2419 40.5922C60.4324 40.8308 60.5263 41.1322 60.5051 41.4368C60.4838 41.7414 60.349 42.0269 60.1273 42.2368C59.8987 42.4535 59.6009 42.5826 59.2864 42.6012C58.972 42.6199 58.661 42.5269 58.4084 42.3386C58.1988 42.1813 57.9403 42.1032 57.6786 42.1179C57.4169 42.1327 57.1689 42.2394 56.9782 42.4192C56.7922 42.5946 56.6794 42.8338 56.6624 43.0889C56.6455 43.3439 56.7257 43.5959 56.887 43.7943C57.0829 44.0357 57.1802 44.3423 57.1593 44.6525C57.1384 44.9627 57.001 45.2535 56.7745 45.4665C56.5233 45.7048 56.1903 45.8377 55.844 45.8377C55.4977 45.8377 55.1647 45.7048 54.9135 45.4665L53.9947 44.5816L54.3299 44.259C54.65 43.9557 54.905 43.5903 55.0792 43.1851C55.2534 42.78 55.3433 42.3436 55.3433 41.9025C55.3433 41.4615 55.2534 41.0251 55.0792 40.62C54.905 40.2148 54.65 39.8494 54.3299 39.546C53.6953 38.9389 52.8568 38.5908 51.9788 38.5699C51.9525 37.7108 51.5889 36.8965 50.9666 36.3036C50.3311 35.6968 49.4917 35.3494 48.6132 35.3296C48.587 34.4704 48.2234 33.6562 47.601 33.0633C47.1934 32.6753 46.6992 32.3899 46.1593 32.2309C45.6194 32.0719 45.0495 32.0437 44.4965 32.1487C44.3563 31.5103 44.029 30.9282 43.5565 30.4766C43.1943 30.1302 42.7624 29.8651 42.2896 29.699C41.8169 29.5328 41.3141 29.4695 40.8149 29.5132C40.648 28.2697 40.7784 27.0044 41.1952 25.8211C41.612 24.6378 42.3034 23.5701 43.2127 22.7058C44.1318 21.8275 45.2338 21.1636 46.4397 20.7615C47.6456 20.3594 48.9256 20.2291 50.1878 20.38L47.1002 22.6506C46.7052 22.9376 46.3724 23.3018 46.122 23.721C45.8716 24.1402 45.7088 24.6058 45.6433 25.0898C45.5779 25.5737 45.6112 26.0658 45.7413 26.5365C45.8713 27.0072 46.0954 27.4466 46.4 27.8283C47.0163 28.6003 47.9064 29.1051 48.8853 29.2379C49.8641 29.3706 50.8565 29.1212 51.6562 28.5413L55.0005 26.0861L58.6525 26.084ZM48.3565 24.3588L53.8567 20.3206H54.9941C55.0982 20.3196 55.2022 20.3225 55.3061 20.3291H57.9416C60.9209 20.3291 63.6392 21.91 65.0249 24.4076C65.9628 26.0967 66.209 28.0596 65.7188 29.9121L65.7124 29.9333L59.8557 24.2739C59.6572 24.0748 59.3877 23.9626 59.1066 23.962H54.6504C54.4251 23.9624 54.2059 24.0345 54.0244 24.1678L50.4 26.8288C50.0438 27.0833 49.604 27.1922 49.1702 27.1334C48.7364 27.0747 48.3414 26.8527 48.0658 26.5126C47.9374 26.3546 47.8428 26.1719 47.7878 25.9759C47.7327 25.7799 47.7183 25.5747 47.7456 25.3729C47.7728 25.1711 47.8411 24.9771 47.9461 24.8027C48.0512 24.6283 48.1908 24.4772 48.3565 24.3588ZM49.2944 42.6293L49.3156 42.6081L50.9666 41.0166L50.9857 40.9996C51.2352 40.7734 51.5609 40.6497 51.8976 40.6533C52.2344 40.6568 52.5574 40.7873 52.8021 41.0187C52.9221 41.1325 53.0177 41.2696 53.083 41.4215C53.1483 41.5735 53.182 41.7371 53.182 41.9025C53.182 42.0679 53.1483 42.2316 53.083 42.3835C53.0177 42.5355 52.9221 42.6725 52.8021 42.7864L51.149 44.3779C50.9009 44.6121 50.5726 44.7427 50.2313 44.7427C49.89 44.7427 49.5617 44.6121 49.3135 44.3779C49.1951 44.2657 49.1004 44.131 49.035 43.9816C48.9696 43.8322 48.9349 43.6712 48.9329 43.5081C48.9309 43.345 48.9617 43.1832 49.0235 43.0322C49.0852 42.8813 49.1787 42.7443 49.2944 42.6293ZM49.4557 39.5269L49.4345 39.546L47.7835 41.1376L47.7623 41.1567C47.5127 41.382 47.1873 41.5049 46.851 41.501C46.5147 41.497 46.1923 41.3665 45.948 41.1354C45.8293 41.0228 45.7346 40.8875 45.6693 40.7374C45.6041 40.5874 45.5698 40.4258 45.5684 40.2622C45.567 40.0986 45.5986 39.9364 45.6613 39.7853C45.7239 39.6342 45.8164 39.4972 45.9331 39.3826L45.948 39.3678L47.5989 37.7763L47.6138 37.7614C47.863 37.5334 48.1893 37.4082 48.527 37.411C48.8648 37.4138 49.189 37.5443 49.4345 37.7763C49.5532 37.8884 49.6482 38.0233 49.7138 38.1729C49.7794 38.3225 49.8142 38.4838 49.8161 38.6471C49.8181 38.8104 49.7872 38.9725 49.7253 39.1237C49.6634 39.2748 49.5717 39.412 49.4557 39.5269ZM46.0711 36.3036L44.418 37.8951L44.4032 37.91C44.154 38.138 43.8277 38.2632 43.4899 38.2604C43.1522 38.2576 42.828 38.1271 42.5825 37.8951C42.4625 37.7813 42.3669 37.6443 42.3016 37.4923C42.2363 37.3404 42.2026 37.1767 42.2026 37.0113C42.2026 36.8459 42.2363 36.6822 42.3016 36.5303C42.3669 36.3783 42.4625 36.2413 42.5825 36.1275L44.2334 34.536C44.4817 34.3011 44.8105 34.1702 45.1522 34.1702C45.494 34.1702 45.8228 34.3011 46.0711 34.536C46.1901 34.6486 46.2851 34.7841 46.3505 34.9343C46.4159 35.0845 46.4504 35.2464 46.4518 35.4103C46.4531 35.5741 46.4215 35.7365 46.3586 35.8879C46.2957 36.0392 46.203 36.1762 46.0859 36.2909L46.0711 36.3036ZM42.0265 33.7169L40.3756 35.3084C40.1273 35.5433 39.7985 35.6742 39.4568 35.6742C39.115 35.6742 38.7862 35.5433 38.5379 35.3084C38.4176 35.1946 38.3217 35.0574 38.2562 34.9052C38.1907 34.7531 38.1569 34.5892 38.1569 34.4235C38.1569 34.2579 38.1907 34.0939 38.2562 33.9418C38.3217 33.7896 38.4176 33.6525 38.5379 33.5386L40.191 31.9471C40.4391 31.7128 40.7675 31.5823 41.1088 31.5823C41.45 31.5823 41.7784 31.7128 42.0265 31.9471C42.1469 32.061 42.2427 32.1981 42.3082 32.3503C42.3737 32.5024 42.4075 32.6663 42.4075 32.832C42.4075 32.9977 42.3737 33.1616 42.3082 33.3137C42.2427 33.4659 42.1469 33.603 42.0265 33.7169Z" fill="#004A33"/>
<defs>
<filter id="filter0_dddd_115_14" x="0" y="0" width="88" height="93" filterUnits="userSpaceOnUse" color-interpolation-filters="sRGB">
<feFlood flood-opacity="0" result="BackgroundImageFix"/>
<feColorMatrix in="SourceAlpha" type="matrix" values="0 0 0 0 0 0 0 0 0 0 0 0 0 0 0 0 0 0 127 0" result="hardAlpha"/>
<feOffset dx="-1" dy="1"/>
<feGaussianBlur stdDeviation="1.5"/>
<feColorMatrix type="matrix" values="0 0 0 0 0 0 0 0 0 0 0 0 0 0 0 0 0 0 0.15 0"/>
<feBlend mode="normal" in2="BackgroundImageFix" result="effect1_dropShadow_115_14"/>
<feColorMatrix in="SourceAlpha" type="matrix" values="0 0 0 0 0 0 0 0 0 0 0 0 0 0 0 0 0 0 127 0" result="hardAlpha"/>
<feOffset dx="-3" dy="5"/>
<feGaussianBlur stdDeviation="3"/>
<feColorMatrix type="matrix" values="0 0 0 0 0 0 0 0 0 0 0 0 0 0 0 0 0 0 0.13 0"/>
<feBlend mode="normal" in2="effect1_dropShadow_115_14" result="effect2_dropShadow_115_14"/>
<feColorMatrix in="SourceAlpha" type="matrix" values="0 0 0 0 0 0 0 0 0 0 0 0 0 0 0 0 0 0 127 0" result="hardAlpha"/>
<feOffset dx="-7" dy="11"/>
<feGaussianBlur stdDeviation="4"/>
<feColorMatrix type="matrix" values="0 0 0 0 0 0 0 0 0 0 0 0 0 0 0 0 0 0 0.08 0"/>
<feBlend mode="normal" in2="effect2_dropShadow_115_14" result="effect3_dropShadow_115_14"/>
<feColorMatrix in="SourceAlpha" type="matrix" values="0 0 0 0 0 0 0 0 0 0 0 0 0 0 0 0 0 0 127 0" result="hardAlpha"/>
<feOffset dx="-13" dy="19"/>
<feGaussianBlur stdDeviation="4.5"/>
<feColorMatrix type="matrix" values="0 0 0 0 0 0 0 0 0 0 0 0 0 0 0 0 0 0 0.02 0"/>
<feBlend mode="normal" in2="effect3_dropShadow_115_14" result="effect4_dropShadow_115_14"/>
<feBlend mode="normal" in="SourceGraphic" in2="effect4_dropShadow_115_14" result="shape"/>
</filter>
</defs>
</svg>
