<svg width="442" height="67" viewBox="0 0 442 67" fill="none" xmlns="http://www.w3.org/2000/svg">
<path d="M37.5559 16.7518H43.8258V44.4181H57.4911V50.2481H37.5559V16.7518Z" fill="white"/>
<path d="M71.9766 16.7518H65.7068V50.2481H71.9766V16.7518Z" fill="white"/>
<path d="M105.868 39.2666V16.7518H111.944V50.2481H108.783L89.6751 28.2254H89.3322V50.2481H83.2114V16.7518H86.4694L105.48 39.2666H105.868Z" fill="white"/>
<path d="M129.493 16.7518H123.224V50.2481H129.493V16.7518Z" fill="white"/>
<path d="M143.987 16.7518L158.129 36.9331H158.472L172.622 16.7518H175.88V50.2481H169.901V29.6344H169.506L158.621 45.0965H157.935L147.095 29.6344H146.752V50.2481H140.729V16.7518H143.987Z" fill="white"/>
<path d="M206.215 40.6756L200.333 27.0624H199.99L194.056 40.6756H206.208H206.215ZM208.213 45.2457H192.117L189.925 50.2556H183.462L198.633 16.804H201.645L216.861 50.2556H210.345L208.206 45.2457H208.213Z" fill="white"/>
<path d="M222.214 48.4514V42.6662C225.315 43.7695 229.438 45.611 233.591 45.4395C237.236 45.4395 240.45 44.2243 240.45 41.1155C240.45 37.1792 236.513 37.0822 231.556 35.375C226.739 33.7721 222.609 31.4833 222.609 25.9441C222.244 15.2533 237.482 14.2394 245.31 17.9745V23.7597C241.344 22.2538 229.751 18.4069 229.311 25.6534C230.035 33.3024 247.308 28.7026 247.107 40.6756C247.592 52.7083 230.4 52.6636 222.214 48.4514Z" fill="white"/>
<path d="M262.427 22.5892H252.654V16.7518H278.471V22.5892H268.697V50.2481H262.427V22.5892Z" fill="white"/>
<path d="M286.59 16.7518H307.643V21.5679H292.86V31.1479H306.041V35.7179H292.86V45.4395H307.643V50.2481H286.59V16.7518Z" fill="white"/>
<path d="M335.891 27.2562C336.092 20.6435 327.765 22.1345 323.396 22.0078V32.5569C327.854 32.4972 335.973 33.7497 335.891 27.2562ZM343.428 50.2481H336.331L328.555 37.3655H323.404V50.2481H317.231V16.7518H330.21C343.496 15.7081 346.306 33.2353 334.631 36.3441L343.428 50.2481Z" fill="white"/>
<path d="M28.0281 43.1061C-0.234565 55.5488 -0.607326 11.8836 28.0281 23.6032V17.8701C16.741 12.4055 -0.771383 18.8841 0.0263244 33.4739C-0.763928 48.0713 16.7335 54.6468 28.0281 49.0852V43.0986V43.1061Z" fill="white"/>
<path d="M441.047 0V7.5596C441.047 11.3916 438.691 14.8359 435.12 16.23L425.711 19.898L407.551 12.8975L441.047 0Z" fill="#00634A"/>
<path d="M407.551 40.0196L389.39 47.102L380.018 43.4937C376.425 42.1145 374.054 38.6627 374.054 34.8084V32.1841C374.054 28.3298 376.425 24.878 380.018 23.4988L389.39 19.8905L407.551 26.9729L390.799 33.4962L407.551 40.0196Z" fill="#00634A"/>
<path d="M441.047 59.4404V67L407.551 54.1024L425.711 47.102L435.12 50.7699C438.691 52.1641 441.047 55.6084 441.047 59.4404Z" fill="#00634A"/>
<path d="M425.712 19.8979L407.551 26.9729L389.382 19.8979L407.551 12.8975L425.712 19.8979Z" fill="#B09663"/>
<path d="M374.047 7.55214V0L407.543 12.8975L389.382 19.898L379.974 16.23C376.403 14.8359 374.047 11.3916 374.047 7.5596" fill="#C7B07D"/>
<path d="M425.712 47.102L407.551 54.1024L389.382 47.102L407.551 40.0195L425.712 47.102Z" fill="#004A33"/>
<path d="M389.382 47.1021L407.543 54.1025L374.047 67V59.4404C374.047 55.6084 376.403 52.1641 379.974 50.77L389.382 47.1021Z" fill="#C7B07D"/>
<path d="M441.047 32.1842V34.8085C441.047 38.6628 438.676 42.1146 435.083 43.4864L425.711 47.0946L407.551 40.0122L424.302 33.4889L407.551 26.9656L425.711 19.8831L435.083 23.4915C438.676 24.8707 441.047 28.3225 441.047 32.1693" fill="#C7B07D"/>
</svg>
