<svg width="23" height="23" viewBox="0 0 23 23" fill="none" xmlns="http://www.w3.org/2000/svg">
<path d="M16.1 1.1499C19.274 1.1499 21.85 3.69874 21.85 6.83927V15.9423C21.85 19.0828 19.274 21.6316 16.1 21.6316H6.90002C3.72602 21.6316 1.15002 19.0828 1.15002 15.9423V6.83927C1.15002 3.69874 3.72602 1.1499 6.90002 1.1499H11.5H16.1Z" stroke="#004A33" stroke-width="2.3" stroke-linecap="round" stroke-linejoin="round"/>
<path d="M11.5 6.83936C14.0415 6.83936 16.1 8.87615 16.1 11.3908C16.1 13.9055 14.0415 15.9423 11.5 15.9423C8.95852 15.9423 6.90002 13.9055 6.90002 11.3908C6.90002 8.87615 8.95852 6.83936 11.5 6.83936Z" stroke="#004A33" stroke-width="2.3" stroke-linecap="round" stroke-linejoin="round"/>
<path d="M17.25 7.40825C18.2027 7.40825 18.975 6.64408 18.975 5.70144C18.975 4.75879 18.2027 3.99463 17.25 3.99463C16.2973 3.99463 15.525 4.75879 15.525 5.70144C15.525 6.64408 16.2973 7.40825 17.25 7.40825Z" fill="#004A33"/>
</svg>
